<svg id="visual" viewBox="0 0 1480 1020" width="1480" height="1020" xmlns="http://www.w3.org/2000/svg" xmlns:xlink="http://www.w3.org/1999/xlink" version="1.1"><rect x="0" y="0" width="1480" height="1020" fill="#ffffff"></rect><g fill="#56B945"><circle r="77" cx="728" cy="988"></circle><circle r="34" cx="236" cy="503"></circle><circle r="56" cx="917" cy="723"></circle><circle r="57" cx="746" cy="801"></circle><circle r="63" cx="603" cy="179"></circle><circle r="59" cx="953" cy="96"></circle><circle r="48" cx="860" cy="266"></circle><circle r="35" cx="575" cy="462"></circle><circle r="36" cx="1148" cy="441"></circle><circle r="61" cx="503" cy="631"></circle><circle r="74" cx="1379" cy="830"></circle><circle r="41" cx="1405" cy="81"></circle><circle r="49" cx="267" cy="820"></circle><circle r="55" cx="215" cy="973"></circle><circle r="36" cx="1316" cy="241"></circle><circle r="35" cx="1192" cy="979"></circle><circle r="54" cx="388" cy="240"></circle><circle r="38" cx="51" cy="3"></circle><circle r="57" cx="400" cy="68"></circle><circle r="51" cx="1107" cy="743"></circle><circle r="69" cx="777" cy="134"></circle><circle r="54" cx="1246" cy="66"></circle><circle r="63" cx="513" cy="871"></circle><circle r="67" cx="1288" cy="643"></circle><circle r="39" cx="48" cy="920"></circle><circle r="69" cx="1008" cy="951"></circle><circle r="43" cx="1162" cy="247"></circle><circle r="40" cx="38" cy="409"></circle><circle r="50" cx="940" cy="555"></circle><circle r="44" cx="1031" cy="333"></circle><circle r="45" cx="1364" cy="396"></circle><circle r="52" cx="43" cy="702"></circle><circle r="45" cx="1458" cy="967"></circle><circle r="56" cx="207" cy="92"></circle><circle r="70" cx="717" cy="604"></circle><circle r="67" cx="322" cy="676"></circle><circle r="47" cx="246" cy="332"></circle><circle r="66" cx="740" cy="447"></circle><circle r="56" cx="45" cy="222"></circle><circle r="70" cx="1096" cy="21"></circle><circle r="75" cx="379" cy="1006"></circle><circle r="44" cx="655" cy="1"></circle><circle r="37" cx="1447" cy="661"></circle><circle r="33" cx="409" cy="465"></circle><circle r="54" cx="1478" cy="245"></circle></g></svg>