<svg width="3876" height="2905" viewBox="0 0 3876 2905" fill="none" xmlns="http://www.w3.org/2000/svg">
<path d="M306.845 923.002C225.96 564.268 184.264 598.343 94.5895 738.487C65.679 783.669 0 764.106 0 710.467V55C0 24.6243 24.6245 0 55.0001 0H3820.5C3850.88 0 3875.5 24.6243 3875.5 55V706.007C3875.5 763.42 3784.72 788.925 3737.17 756.743C3617.06 675.446 3516.66 763.864 3512.5 818C3512.5 824.5 3424 1303.5 3354.5 1178.5C3204.39 873.942 3023.2 982.592 2947.87 1078.62C2945.58 1081.54 2942.99 1084.33 2940.2 1086.78C2583.49 1398.6 2408.16 1249.21 2365 1135C2229.8 554.604 2100.33 594.501 2052.5 687C1909.3 1079 1808 969 1751.5 965C1721.5 965 1467.5 1149.5 1407 1245.5C1377 1289.5 1315.5 1294.83 1288.5 1292C1244.62 1288.82 1204.68 1118.94 1140.05 984.5C1082.72 865.266 999.605 779.5 989 760.5C833.531 481.959 804 760.5 736.5 947C695.368 1052.01 659.855 1138.75 620.898 1144.23C618.321 1144.59 615.691 1144.36 613.15 1143.8C570.721 1134.4 557.046 1074.67 508 1083C457.118 1091.64 430.661 1186.92 380.847 1141.43C376.462 1137.43 373.278 1132.23 370.977 1126.76C340.178 1053.47 322.598 980.095 306.845 923.002Z" fill="#93D872"/>
<path d="M3568.65 1981.25C3649.54 2339.98 3691.24 2305.91 3780.91 2165.76C3809.82 2120.58 3875.5 2140.15 3875.5 2193.79V2849.25C3875.5 2879.63 3850.88 2904.25 3820.5 2904.25H55C24.6243 2904.25 -1.31428e-05 2879.63 -1.31428e-05 2849.25V2198.24C-1.31428e-05 2140.83 90.7817 2115.33 138.327 2147.51C258.439 2228.81 358.836 2140.39 363 2086.25C363 2079.75 451.5 1600.75 521 1725.75C671.112 2030.31 852.302 1921.66 927.63 1825.63C929.921 1822.71 932.509 1819.92 935.305 1817.47C1292.01 1505.65 1467.34 1655.04 1510.5 1769.25C1645.7 2349.65 1775.17 2309.75 1823 2217.25C1966.2 1825.25 2067.5 1935.25 2124 1939.25C2154 1939.25 2408 1754.75 2468.5 1658.75C2498.5 1614.75 2560 1609.42 2587 1612.25C2630.88 1615.43 2670.82 1785.31 2735.45 1919.75C2792.78 2038.99 2875.9 2124.75 2886.5 2143.75C3041.97 2422.29 3071.5 2143.75 3139 1957.25C3180.13 1852.24 3215.64 1765.5 3254.6 1760.03C3257.18 1759.66 3259.81 1759.89 3262.35 1760.45C3304.78 1769.85 3318.45 1829.58 3367.5 1821.25C3418.38 1812.61 3444.84 1717.34 3494.65 1762.82C3499.04 1766.82 3502.22 1772.02 3504.52 1777.5C3535.32 1850.78 3552.9 1924.16 3568.65 1981.25Z" fill="#93D872"/>
</svg>
