<svg width="1480" height="1020" viewBox="0 0 1480 1020" fill="none" xmlns="http://www.w3.org/2000/svg">
<path d="M117.18 324.167C77.141 160.854 62.2475 229.34 0 310.294V0H1480V326.098C1414.93 212.446 1343.56 261.201 1341.38 287.289C1341.38 289.572 1307.58 457.801 1281.04 413.9C1222.84 305.306 1152.41 346.292 1124.46 380.36C987.138 491.623 919.709 438.895 903.161 398.623C851.53 194.782 802.088 208.794 783.821 241.281C729.135 378.955 690.45 340.322 668.874 338.917C657.417 338.917 560.418 403.715 537.314 437.431C525.857 452.884 502.371 454.757 492.06 453.762C475.302 452.645 460.051 392.983 435.368 345.765C413.478 303.889 381.735 273.768 377.685 267.095C318.314 169.268 307.037 267.095 281.259 332.595C265.029 370.701 251.09 401.959 235.624 401.959C218.248 399.676 213.283 377.348 193.998 380.36C173.758 383.521 163.638 419.695 143.016 398.623C130.414 371.931 123.422 344.971 117.18 324.167Z" fill="#7DE84B"/>
<path d="M1362.82 695.833C1402.86 859.146 1417.75 790.66 1480 709.706V1020H8.82149e-05V693.902C65.0734 807.554 136.443 758.799 138.625 732.711C138.625 730.428 172.422 562.199 198.963 606.1C257.162 714.694 327.595 673.708 355.536 639.64C492.862 528.377 560.291 581.105 576.839 621.377C628.47 825.218 677.912 811.206 696.179 778.719C750.865 641.045 789.55 679.678 811.126 681.083C822.583 681.083 919.582 616.285 942.686 582.569C954.143 567.116 977.629 565.243 987.94 566.238C1004.7 567.355 1019.95 627.017 1044.63 674.235C1066.52 716.111 1098.26 746.232 1102.31 752.905C1161.69 850.732 1172.96 752.905 1198.74 687.405C1214.97 649.299 1228.91 618.041 1244.38 618.041C1261.75 620.324 1266.72 642.652 1286 639.64C1306.24 636.479 1316.36 600.305 1336.98 621.377C1349.59 648.069 1356.58 675.029 1362.82 695.833Z" fill="#7DE84B"/>
</svg>
