<svg id="visual" viewBox="0 0 1680 1020" width="1680" height="1020" xmlns="http://www.w3.org/2000/svg" xmlns:xlink="http://www.w3.org/1999/xlink" version="1.1"><g stroke-width="1" stroke-linejoin="bevel"><path d="M866.6 535L766.4 520L783.4 669.5Z" fill="#00d82e" stroke="#00d82e"></path><path d="M783.4 669.5L898.6 639.5L866.6 535Z" fill="#00ce32" stroke="#00ce32"></path><path d="M766.4 520L680.2 632.5L783.4 669.5Z" fill="#00f516" stroke="#00f516"></path><path d="M783.4 669.5L887.6 742L898.6 639.5Z" fill="#00e128" stroke="#00e128"></path><path d="M764.4 792L887.6 742L783.4 669.5Z" fill="#00d82e" stroke="#00d82e"></path><path d="M766.4 520L620.2 530L680.2 632.5Z" fill="#08bb37" stroke="#08bb37"></path><path d="M887.6 742L1002.8 627.5L898.6 639.5Z" fill="#03c435" stroke="#03c435"></path><path d="M898.6 639.5L1002.8 627.5L866.6 535Z" fill="#08bb37" stroke="#08bb37"></path><path d="M648.2 799L764.4 792L680.2 632.5Z" fill="#00e128" stroke="#00e128"></path><path d="M680.2 632.5L764.4 792L783.4 669.5Z" fill="#08ff00" stroke="#08ff00"></path><path d="M882.6 381.5L766.4 520L866.6 535Z" fill="#03c435" stroke="#03c435"></path><path d="M882.6 381.5L750.4 378.5L766.4 520Z" fill="#00d82e" stroke="#00d82e"></path><path d="M766.4 520L750.4 378.5L620.2 530Z" fill="#08bb37" stroke="#08bb37"></path><path d="M1033.8 543L882.6 381.5L866.6 535Z" fill="#12a83a" stroke="#12a83a"></path><path d="M1002.8 627.5L1033.8 543L866.6 535Z" fill="#03c435" stroke="#03c435"></path><path d="M537.9 642.5L648.2 799L680.2 632.5Z" fill="#00f516" stroke="#00f516"></path><path d="M620.2 530L537.9 642.5L680.2 632.5Z" fill="#08ff00" stroke="#08ff00"></path><path d="M630.2 268L621.2 373.5L750.4 378.5Z" fill="#12a83a" stroke="#12a83a"></path><path d="M750.4 378.5L621.2 373.5L620.2 530Z" fill="#0db239" stroke="#0db239"></path><path d="M620.2 530L522.9 535L537.9 642.5Z" fill="#12a83a" stroke="#12a83a"></path><path d="M542.9 411.5L522.9 535L620.2 530Z" fill="#03c435" stroke="#03c435"></path><path d="M621.2 373.5L542.9 411.5L620.2 530Z" fill="#00f516" stroke="#00f516"></path><path d="M995.8 882.5L1057.8 793L887.6 742Z" fill="#03c435" stroke="#03c435"></path><path d="M887.6 742L1057.8 793L1002.8 627.5Z" fill="#08ff00" stroke="#08ff00"></path><path d="M1002.8 627.5L1156.1 546L1033.8 543Z" fill="#169f3b" stroke="#169f3b"></path><path d="M896.6 903.5L887.6 742L764.4 792Z" fill="#08ff00" stroke="#08ff00"></path><path d="M1069.8 390.5L921.6 288L882.6 381.5Z" fill="#00d82e" stroke="#00d82e"></path><path d="M882.6 381.5L759.4 255L750.4 378.5Z" fill="#169f3b" stroke="#169f3b"></path><path d="M781.4 925.5L896.6 903.5L764.4 792Z" fill="#12a83a" stroke="#12a83a"></path><path d="M1156.1 546L1069.8 390.5L1033.8 543Z" fill="#12a83a" stroke="#12a83a"></path><path d="M1033.8 543L1069.8 390.5L882.6 381.5Z" fill="#0db239" stroke="#0db239"></path><path d="M537.9 642.5L525.9 774L648.2 799Z" fill="#00f516" stroke="#00f516"></path><path d="M659.2 894.5L781.4 925.5L764.4 792Z" fill="#00f516" stroke="#00f516"></path><path d="M402.7 734L525.9 774L537.9 642.5Z" fill="#0db239" stroke="#0db239"></path><path d="M659.2 894.5L764.4 792L648.2 799Z" fill="#00ce32" stroke="#00ce32"></path><path d="M551.9 917.5L659.2 894.5L648.2 799Z" fill="#08bb37" stroke="#08bb37"></path><path d="M921.6 288L759.4 255L882.6 381.5Z" fill="#00eb21" stroke="#00eb21"></path><path d="M621.2 373.5L553.9 284L542.9 411.5Z" fill="#00d82e" stroke="#00d82e"></path><path d="M896.6 903.5L995.8 882.5L887.6 742Z" fill="#00e128" stroke="#00e128"></path><path d="M1187.1 650.5L1156.1 546L1002.8 627.5Z" fill="#00eb21" stroke="#00eb21"></path><path d="M759.4 255L630.2 268L750.4 378.5Z" fill="#00eb21" stroke="#00eb21"></path><path d="M1177.1 787L1187.1 650.5L1057.8 793Z" fill="#00d82e" stroke="#00d82e"></path><path d="M1057.8 793L1187.1 650.5L1002.8 627.5Z" fill="#00f516" stroke="#00f516"></path><path d="M630.2 268L553.9 284L621.2 373.5Z" fill="#169f3b" stroke="#169f3b"></path><path d="M391.7 417.5L406.7 547L522.9 535Z" fill="#08bb37" stroke="#08bb37"></path><path d="M1148.1 282L1054.8 278L1069.8 390.5Z" fill="#00e128" stroke="#00e128"></path><path d="M1069.8 390.5L1054.8 278L921.6 288Z" fill="#169f3b" stroke="#169f3b"></path><path d="M921.6 288L891.6 146.5L759.4 255Z" fill="#00f516" stroke="#00f516"></path><path d="M391.7 417.5L522.9 535L542.9 411.5Z" fill="#03c435" stroke="#03c435"></path><path d="M522.9 535L406.7 547L537.9 642.5Z" fill="#00e128" stroke="#00e128"></path><path d="M421.7 905.5L551.9 917.5L525.9 774Z" fill="#03c435" stroke="#03c435"></path><path d="M525.9 774L551.9 917.5L648.2 799Z" fill="#00f516" stroke="#00f516"></path><path d="M680.2 1020L800.4 1020L781.4 925.5Z" fill="#08ff00" stroke="#08ff00"></path><path d="M1194.1 869.5L1177.1 787L1057.8 793Z" fill="#00d82e" stroke="#00d82e"></path><path d="M406.7 547L392.7 670.5L537.9 642.5Z" fill="#00eb21" stroke="#00eb21"></path><path d="M1156.1 546L1165.1 364.5L1069.8 390.5Z" fill="#12a83a" stroke="#12a83a"></path><path d="M1257.3 544L1165.1 364.5L1156.1 546Z" fill="#169f3b" stroke="#169f3b"></path><path d="M392.7 670.5L402.7 734L537.9 642.5Z" fill="#00f516" stroke="#00f516"></path><path d="M680.2 1020L781.4 925.5L659.2 894.5Z" fill="#08ff00" stroke="#08ff00"></path><path d="M781.4 925.5L867.6 1020L896.6 903.5Z" fill="#08ff00" stroke="#08ff00"></path><path d="M896.6 903.5L1009.8 1020L995.8 882.5Z" fill="#08bb37" stroke="#08bb37"></path><path d="M995.8 882.5L1194.1 869.5L1057.8 793Z" fill="#0db239" stroke="#0db239"></path><path d="M800.4 1020L867.6 1020L781.4 925.5Z" fill="#08ff00" stroke="#08ff00"></path><path d="M551.9 917.5L680.2 1020L659.2 894.5Z" fill="#03c435" stroke="#03c435"></path><path d="M553.9 284L391.7 417.5L542.9 411.5Z" fill="#12a83a" stroke="#12a83a"></path><path d="M406.7 547L285.5 610.5L392.7 670.5Z" fill="#03c435" stroke="#03c435"></path><path d="M1014.8 115.5L921.6 288L1054.8 278Z" fill="#00ce32" stroke="#00ce32"></path><path d="M1014.8 115.5L891.6 146.5L921.6 288Z" fill="#00e128" stroke="#00e128"></path><path d="M759.4 255L646.2 121.5L630.2 268Z" fill="#08ff00" stroke="#08ff00"></path><path d="M630.2 268L646.2 121.5L553.9 284Z" fill="#12a83a" stroke="#12a83a"></path><path d="M1320.3 652.5L1257.3 544L1187.1 650.5Z" fill="#03c435" stroke="#03c435"></path><path d="M1187.1 650.5L1257.3 544L1156.1 546Z" fill="#00e128" stroke="#00e128"></path><path d="M1284.3 218L1148.1 282L1165.1 364.5Z" fill="#03c435" stroke="#03c435"></path><path d="M1165.1 364.5L1148.1 282L1069.8 390.5Z" fill="#08ff00" stroke="#08ff00"></path><path d="M867.6 1020L1009.8 1020L896.6 903.5Z" fill="#0db239" stroke="#0db239"></path><path d="M1132.1 1020L1194.1 869.5L995.8 882.5Z" fill="#00ce32" stroke="#00ce32"></path><path d="M1177.1 787L1320.3 652.5L1187.1 650.5Z" fill="#00ce32" stroke="#00ce32"></path><path d="M813.4 94.5L646.2 121.5L759.4 255Z" fill="#00e128" stroke="#00e128"></path><path d="M553.9 284L382.7 267L391.7 417.5Z" fill="#12a83a" stroke="#12a83a"></path><path d="M938.6 0L813.4 94.5L891.6 146.5Z" fill="#00f516" stroke="#00f516"></path><path d="M891.6 146.5L813.4 94.5L759.4 255Z" fill="#08ff00" stroke="#08ff00"></path><path d="M402.7 734L421.7 905.5L525.9 774Z" fill="#00ce32" stroke="#00ce32"></path><path d="M551.9 917.5L528.9 1020L680.2 1020Z" fill="#08ff00" stroke="#08ff00"></path><path d="M246.5 790L421.7 905.5L402.7 734Z" fill="#08ff00" stroke="#08ff00"></path><path d="M421.7 905.5L528.9 1020L551.9 917.5Z" fill="#03c435" stroke="#03c435"></path><path d="M1319.3 800L1320.3 652.5L1177.1 787Z" fill="#0db239" stroke="#0db239"></path><path d="M1284.3 218L1123.1 148.5L1148.1 282Z" fill="#12a83a" stroke="#12a83a"></path><path d="M1123.1 148.5L1014.8 115.5L1054.8 278Z" fill="#00d82e" stroke="#00d82e"></path><path d="M277.5 526L285.5 610.5L406.7 547Z" fill="#00f516" stroke="#00f516"></path><path d="M392.7 670.5L246.5 790L402.7 734Z" fill="#08ff00" stroke="#08ff00"></path><path d="M280.5 373.5L277.5 526L391.7 417.5Z" fill="#03c435" stroke="#03c435"></path><path d="M391.7 417.5L277.5 526L406.7 547Z" fill="#00e128" stroke="#00e128"></path><path d="M520.9 89.5L382.7 267L553.9 284Z" fill="#03c435" stroke="#03c435"></path><path d="M1259.3 1020L1257.3 883.5L1194.1 869.5Z" fill="#00e128" stroke="#00e128"></path><path d="M1194.1 869.5L1257.3 883.5L1177.1 787Z" fill="#00f516" stroke="#00f516"></path><path d="M1009.8 1020L1132.1 1020L995.8 882.5Z" fill="#12a83a" stroke="#12a83a"></path><path d="M1328.3 353.5L1165.1 364.5L1257.3 544Z" fill="#00e128" stroke="#00e128"></path><path d="M1148.1 282L1123.1 148.5L1054.8 278Z" fill="#00eb21" stroke="#00eb21"></path><path d="M1257.3 883.5L1319.3 800L1177.1 787Z" fill="#00f516" stroke="#00f516"></path><path d="M382.7 267L280.5 373.5L391.7 417.5Z" fill="#00d82e" stroke="#00d82e"></path><path d="M1404.5 536L1257.3 544L1320.3 652.5Z" fill="#00d82e" stroke="#00d82e"></path><path d="M1404.5 536L1328.3 353.5L1257.3 544Z" fill="#08ff00" stroke="#08ff00"></path><path d="M646.2 121.5L520.9 89.5L553.9 284Z" fill="#00ce32" stroke="#00ce32"></path><path d="M382.7 267L264.5 223L280.5 373.5Z" fill="#00ce32" stroke="#00ce32"></path><path d="M664.2 0L520.9 89.5L646.2 121.5Z" fill="#12a83a" stroke="#12a83a"></path><path d="M296.5 1020L404.7 1020L421.7 905.5Z" fill="#12a83a" stroke="#12a83a"></path><path d="M421.7 905.5L404.7 1020L528.9 1020Z" fill="#00e128" stroke="#00e128"></path><path d="M938.6 0L772.4 0L813.4 94.5Z" fill="#00eb21" stroke="#00eb21"></path><path d="M813.4 94.5L772.4 0L646.2 121.5Z" fill="#169f3b" stroke="#169f3b"></path><path d="M938.6 0L891.6 146.5L1014.8 115.5Z" fill="#0db239" stroke="#0db239"></path><path d="M90.2 603.5L246.5 790L285.5 610.5Z" fill="#169f3b" stroke="#169f3b"></path><path d="M285.5 610.5L246.5 790L392.7 670.5Z" fill="#00eb21" stroke="#00eb21"></path><path d="M148.2 494L285.5 610.5L277.5 526Z" fill="#00e128" stroke="#00e128"></path><path d="M1431.5 619.5L1404.5 536L1320.3 652.5Z" fill="#00f516" stroke="#00f516"></path><path d="M999.8 0L938.6 0L1014.8 115.5Z" fill="#08ff00" stroke="#08ff00"></path><path d="M1328.3 353.5L1284.3 218L1165.1 364.5Z" fill="#12a83a" stroke="#12a83a"></path><path d="M1123.1 148.5L999.8 0L1014.8 115.5Z" fill="#00f516" stroke="#00f516"></path><path d="M1383.5 272L1284.3 218L1328.3 353.5Z" fill="#00eb21" stroke="#00eb21"></path><path d="M772.4 0L664.2 0L646.2 121.5Z" fill="#12a83a" stroke="#12a83a"></path><path d="M1193.1 0L999.8 0L1123.1 148.5Z" fill="#03c435" stroke="#03c435"></path><path d="M1132.1 1020L1259.3 1020L1194.1 869.5Z" fill="#03c435" stroke="#03c435"></path><path d="M1421.5 892.5L1431.5 787L1319.3 800Z" fill="#169f3b" stroke="#169f3b"></path><path d="M1431.5 787L1431.5 619.5L1320.3 652.5Z" fill="#00eb21" stroke="#00eb21"></path><path d="M382.7 0L357.7 158.5L520.9 89.5Z" fill="#08ff00" stroke="#08ff00"></path><path d="M520.9 89.5L357.7 158.5L382.7 267Z" fill="#08bb37" stroke="#08bb37"></path><path d="M1431.5 787L1320.3 652.5L1319.3 800Z" fill="#169f3b" stroke="#169f3b"></path><path d="M246.5 790L268.5 928.5L421.7 905.5Z" fill="#00d82e" stroke="#00d82e"></path><path d="M1568.8 496L1412.5 374.5L1404.5 536Z" fill="#03c435" stroke="#03c435"></path><path d="M1404.5 536L1412.5 374.5L1328.3 353.5Z" fill="#00d82e" stroke="#00d82e"></path><path d="M1427.5 157.5L1261.3 124.5L1284.3 218Z" fill="#03c435" stroke="#03c435"></path><path d="M1284.3 218L1261.3 124.5L1123.1 148.5Z" fill="#00e128" stroke="#00e128"></path><path d="M1421.5 892.5L1319.3 800L1257.3 883.5Z" fill="#00eb21" stroke="#00eb21"></path><path d="M357.7 158.5L264.5 223L382.7 267Z" fill="#00f516" stroke="#00f516"></path><path d="M280.5 373.5L148.2 494L277.5 526Z" fill="#169f3b" stroke="#169f3b"></path><path d="M1412.5 374.5L1383.5 272L1328.3 353.5Z" fill="#08bb37" stroke="#08bb37"></path><path d="M96.2 399.5L148.2 494L280.5 373.5Z" fill="#00d82e" stroke="#00d82e"></path><path d="M246.5 790L165.2 921.5L268.5 928.5Z" fill="#00e128" stroke="#00e128"></path><path d="M268.5 928.5L296.5 1020L421.7 905.5Z" fill="#0db239" stroke="#0db239"></path><path d="M357.7 158.5L278.5 115.5L264.5 223Z" fill="#12a83a" stroke="#12a83a"></path><path d="M664.2 0L489.9 0L520.9 89.5Z" fill="#03c435" stroke="#03c435"></path><path d="M1259.3 1020L1421.5 892.5L1257.3 883.5Z" fill="#00d82e" stroke="#00d82e"></path><path d="M1275.3 0L1193.1 0L1261.3 124.5Z" fill="#08ff00" stroke="#08ff00"></path><path d="M1261.3 124.5L1193.1 0L1123.1 148.5Z" fill="#03c435" stroke="#03c435"></path><path d="M382.7 0L278.5 115.5L357.7 158.5Z" fill="#169f3b" stroke="#169f3b"></path><path d="M149.2 242L96.2 399.5L280.5 373.5Z" fill="#00ce32" stroke="#00ce32"></path><path d="M0 604.5L90.2 603.5L0 548Z" fill="#00f516" stroke="#00f516"></path><path d="M148.2 494L90.2 603.5L285.5 610.5Z" fill="#00d82e" stroke="#00d82e"></path><path d="M268.5 928.5L164.2 1020L296.5 1020Z" fill="#0db239" stroke="#0db239"></path><path d="M96.2 791L165.2 921.5L246.5 790Z" fill="#03c435" stroke="#03c435"></path><path d="M489.9 0L382.7 0L520.9 89.5Z" fill="#169f3b" stroke="#169f3b"></path><path d="M149.2 242L280.5 373.5L264.5 223Z" fill="#00ce32" stroke="#00ce32"></path><path d="M90.2 603.5L96.2 791L246.5 790Z" fill="#08bb37" stroke="#08bb37"></path><path d="M125.2 160.5L264.5 223L278.5 115.5Z" fill="#169f3b" stroke="#169f3b"></path><path d="M125.2 160.5L149.2 242L264.5 223Z" fill="#03c435" stroke="#03c435"></path><path d="M1557.8 871.5L1530.8 778L1431.5 787Z" fill="#08ff00" stroke="#08ff00"></path><path d="M1431.5 787L1530.8 778L1431.5 619.5Z" fill="#169f3b" stroke="#169f3b"></path><path d="M1431.5 619.5L1568.8 496L1404.5 536Z" fill="#12a83a" stroke="#12a83a"></path><path d="M1556.8 248L1427.5 157.5L1383.5 272Z" fill="#12a83a" stroke="#12a83a"></path><path d="M1427.5 157.5L1275.3 0L1261.3 124.5Z" fill="#00d82e" stroke="#00d82e"></path><path d="M1556.8 248L1383.5 272L1412.5 374.5Z" fill="#00f516" stroke="#00f516"></path><path d="M1383.5 272L1427.5 157.5L1284.3 218Z" fill="#169f3b" stroke="#169f3b"></path><path d="M1259.3 1020L1436.5 1020L1421.5 892.5Z" fill="#08ff00" stroke="#08ff00"></path><path d="M1421.5 892.5L1557.8 871.5L1431.5 787Z" fill="#12a83a" stroke="#12a83a"></path><path d="M1582.8 649.5L1568.8 496L1431.5 619.5Z" fill="#00eb21" stroke="#00eb21"></path><path d="M0 1020L164.2 1020L165.2 921.5Z" fill="#00e128" stroke="#00e128"></path><path d="M165.2 921.5L164.2 1020L268.5 928.5Z" fill="#00eb21" stroke="#00eb21"></path><path d="M1680 647.5L1582.8 649.5L1680 732Z" fill="#08bb37" stroke="#08bb37"></path><path d="M1530.8 778L1582.8 649.5L1431.5 619.5Z" fill="#08bb37" stroke="#08bb37"></path><path d="M1556.8 248L1558.8 363.5L1680 283Z" fill="#00f516" stroke="#00f516"></path><path d="M1568.8 496L1558.8 363.5L1412.5 374.5Z" fill="#169f3b" stroke="#169f3b"></path><path d="M1436.5 1020L1557.8 871.5L1421.5 892.5Z" fill="#08bb37" stroke="#08bb37"></path><path d="M150.2 0L125.2 160.5L278.5 115.5Z" fill="#08bb37" stroke="#08bb37"></path><path d="M0 251L0 421.5L96.2 399.5Z" fill="#00f516" stroke="#00f516"></path><path d="M90.2 603.5L0 736L96.2 791Z" fill="#08ff00" stroke="#08ff00"></path><path d="M96.2 791L0 875.5L165.2 921.5Z" fill="#169f3b" stroke="#169f3b"></path><path d="M0 548L90.2 603.5L148.2 494Z" fill="#00e128" stroke="#00e128"></path><path d="M0 548L148.2 494L0 421.5Z" fill="#169f3b" stroke="#169f3b"></path><path d="M0 421.5L148.2 494L96.2 399.5Z" fill="#169f3b" stroke="#169f3b"></path><path d="M0 604.5L0 736L90.2 603.5Z" fill="#00ce32" stroke="#00ce32"></path><path d="M382.7 0L238.5 0L278.5 115.5Z" fill="#08bb37" stroke="#08bb37"></path><path d="M1680 474L1558.8 363.5L1568.8 496Z" fill="#0db239" stroke="#0db239"></path><path d="M1558.8 363.5L1556.8 248L1412.5 374.5Z" fill="#0db239" stroke="#0db239"></path><path d="M1427.5 157.5L1455.5 0L1275.3 0Z" fill="#08bb37" stroke="#08bb37"></path><path d="M0 251L96.2 399.5L149.2 242Z" fill="#00e128" stroke="#00e128"></path><path d="M0 736L0 875.5L96.2 791Z" fill="#00eb21" stroke="#00eb21"></path><path d="M1680 732L1582.8 649.5L1530.8 778Z" fill="#169f3b" stroke="#169f3b"></path><path d="M1582.8 649.5L1680 647.5L1568.8 496Z" fill="#0db239" stroke="#0db239"></path><path d="M125.2 160.5L0 251L149.2 242Z" fill="#0db239" stroke="#0db239"></path><path d="M0 157.5L0 251L125.2 160.5Z" fill="#00f516" stroke="#00f516"></path><path d="M1574.8 126.5L1455.5 0L1427.5 157.5Z" fill="#03c435" stroke="#03c435"></path><path d="M1680 647.5L1680 474L1568.8 496Z" fill="#12a83a" stroke="#12a83a"></path><path d="M1556.8 248L1574.8 126.5L1427.5 157.5Z" fill="#00e128" stroke="#00e128"></path><path d="M238.5 0L150.2 0L278.5 115.5Z" fill="#169f3b" stroke="#169f3b"></path><path d="M1557.8 871.5L1680 732L1530.8 778Z" fill="#00ce32" stroke="#00ce32"></path><path d="M1680 929.5L1680 732L1557.8 871.5Z" fill="#0db239" stroke="#0db239"></path><path d="M1436.5 1020L1580.8 1020L1557.8 871.5Z" fill="#00d82e" stroke="#00d82e"></path><path d="M1680 149.5L1574.8 126.5L1556.8 248Z" fill="#00ce32" stroke="#00ce32"></path><path d="M1680 474L1680 359.5L1558.8 363.5Z" fill="#12a83a" stroke="#12a83a"></path><path d="M0 875.5L0 1020L165.2 921.5Z" fill="#00d82e" stroke="#00d82e"></path><path d="M0 0L0 157.5L125.2 160.5Z" fill="#00e128" stroke="#00e128"></path><path d="M1680 359.5L1680 283L1558.8 363.5Z" fill="#00d82e" stroke="#00d82e"></path><path d="M1580.8 1020L1680 929.5L1557.8 871.5Z" fill="#08bb37" stroke="#08bb37"></path><path d="M1580.8 1020L1680 1020L1680 929.5Z" fill="#00d82e" stroke="#00d82e"></path><path d="M1680 283L1680 149.5L1556.8 248Z" fill="#00e128" stroke="#00e128"></path><path d="M1574.8 126.5L1586.8 0L1455.5 0Z" fill="#08ff00" stroke="#08ff00"></path><path d="M1680 0L1586.8 0L1574.8 126.5Z" fill="#169f3b" stroke="#169f3b"></path><path d="M150.2 0L0 0L125.2 160.5Z" fill="#00f516" stroke="#00f516"></path><path d="M1680 149.5L1680 0L1574.8 126.5Z" fill="#12a83a" stroke="#12a83a"></path></g></svg>